<svg version="1.2" xmlns="http://www.w3.org/2000/svg" viewBox="0 0 186 40" width="186" height="40">
	<title>logo-svg</title>
	<style>
		tspan { white-space:pre } 
		.s0 { fill: #0084ff } 
		.t1 { font-size: 22px;line-height: 28px;fill: #000000;font-weight: 400;font-family: "IndigoRegular-Regular", "Indigo" } 
	</style>
	<g id="Page-1">
		<g id="logo">
			<path id="Path" class="s0" d="m35.2 11.5v-5.2l-9.6-6.3v4l6.3 4.2v3.2l-2.9 2-2-1.5v-2.5l-3.3-2.2v4.5l-5.2 3.2v8.4l-3.7 2.1-1.9-1.5v-2.4l2.3-1.5v-0.1-3.7l-4 2.7-3.1-2-2.8 1.8 4.4 3v1.8l-3.2 2.2-3.2-2.2v-7.3l4.8-3.2v-3.1l6.1 3.9 5.2-3.4-3.2-1.8-2 1.3-4.5-2.9 5-3 4.4 2.6v-3.8l-4.4-2.6-9.9 5.8v5.2l-4.8 3.3v10.8l4.8 3.2v5.2l9.6 6.3v-4l-6.3-4.2v-3.2l2.9-2 2 1.5v2.5l3.3 2.2v-4.5l5.3-3.2v-8.4l3.6-2.1 1.9 1.5v2.4l-2.3 1.5v0.1 3.7l4-2.7 3.1 2 2.8-1.8-4.4-3v-1.8l3.2-2.2 3.2 2.2v7.3l-4.8 3.2v3.1l-6.1-3.9-5.2 3.4 3.2 1.8 2-1.3 4.5 2.9-5 3-4.4-2.6v3.8l4.4 2.6 9.9-5.8v-5.2l4.8-3.3v-10.8z"/>
			<text id="Executor AI " style="transform: matrix(1,0,0,1,50.027,26.541)" >
				<tspan x="0" y="0" class="t1" dx="0" >E</tspan><tspan  y="0" class="t1" dx="0" >x</tspan><tspan  y="0" class="t1" dx="0" >e</tspan><tspan  y="0" class="t1" dx="0" >c</tspan><tspan  y="0" class="t1" dx="0" >u</tspan><tspan  y="0" class="t1" dx="0" >t</tspan><tspan  y="0" class="t1" dx="0" >o</tspan><tspan  y="0" class="t1" dx="0" >r</tspan><tspan  y="0" class="t1" dx="0" > </tspan><tspan  y="0" class="t1" dx="0" >A</tspan><tspan  y="0" class="t1" dx="0" >I</tspan><tspan  y="0" class="t1" dx="0" > </tspan><tspan  y="0" class="t1" dx="0" >
</tspan>
			</text>
		</g>
	</g>
</svg>